<?xml version="1.0" encoding="UTF-8"?>
<svg width="752pt" height="752pt" version="1.1" viewBox="0 0 752 752" xmlns="http://www.w3.org/2000/svg">
 <g>
  <path d="m37.602 0h676.8c20.766 0 37.602 20.766 37.602 37.602v676.8c0 20.766-16.836 37.602-37.602 37.602h-676.8c-20.766 0-37.602-20.766-37.602-37.602v-676.8c0-20.766 16.836-37.602 37.602-37.602z" fill="#a8aaad"/>
  <path d="m265.79 365.34-22.758 48.352h149.33l-11.375 24.18h-133.68l139.37 120.88-79.641-99.551h132.26l32.707-78.219h-203.37z" fill-rule="evenodd"/>
  <path d="m486.22 386.67 24.176-46.934h-149.32l11.375-25.598h132.26l-139.37-119.46 79.641 98.129h-132.26l-31.289 78.219h201.95z" fill-rule="evenodd"/>
 </g>
</svg>
